<svg xmlns="http://www.w3.org/2000/svg" viewBox="0 0 64 64" role="img" aria-labelledby="title desc">
  <title id="title">Accessibilitat sensorial</title>
  <desc id="desc">Marca organica amb connexions sensorials</desc>
  <g fill="none" stroke-linecap="round" stroke-linejoin="round">
    <path d="M20.5 39.8c-6.8-.7-11.1-4.9-11.1-10.5 0-4.7 3.2-8.4 7.6-9.1 1.4-5.5 6.6-8.6 11.7-6.9 2.4-3.2 7.2-3.8 10.2-1.1 2.4 2.1 3 5.4 1.8 8.1 4.9.7 8.2 4.3 8.2 8.8 0 5.4-4.5 9.4-11 10.3" stroke="#cddf8a" stroke-width="3.1"/>
    <path d="M23.2 45.8c-2.3-2.5-2.4-6.1-.5-8.6-3.1-2.9-3.6-7.8-1-11.1 2.5-3.2 6.9-3.8 10.1-1.8 2.7-3.6 8.2-3.7 11-.1 2.5 3.2 2.2 7.9-.8 10.9 2.2 2.5 2.1 6.5-.3 9-2.7 2.9-7.3 2.8-9.8-.2-2.2 3.6-6.2 4.6-8.7 1.9Z" stroke="#58b8aa" stroke-width="3.1"/>
    <path d="M27.1 31.8c2.8-2.9 7.3-2.9 10.1 0m-12.5 6.1c4.6-1.6 9.5-1.5 14.2.2m-7.1-20.9c1.8 2.6 1.9 5.2.3 7.8m-13-1.1c2.7.6 4.8 2.2 6.1 4.8m17.4-5.2c-2.9.7-5.3 2.4-7.1 5.1" stroke="#0a5a57" stroke-width="2.4"/>
    <path d="M18.2 47.9c3.8 2.8 8 4.2 12.7 4.2 6.6 0 12.2-2.6 16.7-7.7" stroke="#cddf8a" stroke-width="2.7"/>
  </g>
</svg>
