<svg width="64" height="64" viewBox="0 0 64 64" fill="none" xmlns="http://www.w3.org/2000/svg" role="img" aria-labelledby="title desc">
  <title id="title">Accessibilitat sensorial</title>
  <desc id="desc">Marca oficial de l'aplicació Accessibilitat sensorial.</desc>
  <rect width="64" height="64" rx="12" fill="#0D4F54"/>
  <path d="M18 19.75C18 18.7 18.83 17.83 19.88 17.77L27.42 17.32C28.58 17.25 29.58 18.17 29.58 19.34V46.23L19.88 46.73C18.83 46.78 18 45.94 18 44.89V19.75Z" stroke="#FFFDF8" stroke-width="3" stroke-linecap="round" stroke-linejoin="round"/>
  <path d="M29.58 19.18L36.72 16.6C38.03 16.13 39.42 17.1 39.42 18.5V44.82L29.58 46.23V19.18Z" stroke="#FFFDF8" stroke-width="3" stroke-linecap="round" stroke-linejoin="round"/>
  <path d="M39.42 18.5L45.96 17.8C47.15 17.67 48.18 18.6 48.18 19.79V44.06C48.18 45.08 47.41 45.93 46.39 46.04L39.42 46.8V18.5Z" stroke="#FFFDF8" stroke-width="3" stroke-linecap="round" stroke-linejoin="round"/>
  <path d="M24.25 23.5V40.5" stroke="#FFFDF8" stroke-width="2" stroke-linecap="round" opacity=".7"/>
  <path d="M34.5 21.75V42.25" stroke="#FFFDF8" stroke-width="2" stroke-linecap="round" opacity=".7"/>
  <path d="M43.75 23.5V40.5" stroke="#FFFDF8" stroke-width="2" stroke-linecap="round" opacity=".7"/>
</svg>
